<?xml version="1.0" encoding="UTF-8"?>
<svg id="Layer_1" data-name="Layer 1" xmlns="http://www.w3.org/2000/svg" viewBox="0 0 48.84 34.93">
  <path d="M48.84,3.23v5.28c-1.13.33-2.26.66-3.39.99-5.65,1.65-11.31,3.3-16.96,4.95-1.17.34-2.34.68-3.51,1.03-3.42-1-6.84-2-10.26-3-4.91-1.44-9.82-2.87-14.72-4.3V3.23C0,1.45,1.45,0,3.23,0h42.37c1.78,0,3.23,1.45,3.23,3.23Z" style="fill: #231f20; stroke-width: 0px;"/>
  <path d="M43.95,12.91c1.62-.47,3.25-.94,4.88-1.41v20.2c0,1.78-1.45,3.23-3.23,3.23H3.23c-1.78,0-3.23-1.44-3.23-3.23V11.16c1.27.37,2.54.74,3.81,1.11,5.67,1.65,11.33,3.31,16.99,4.96,1.25.36,2.5.81,3.76,1.1.97.22,2.28-.42,3.19-.69,5.4-1.57,10.8-3.15,16.2-4.73Z" style="fill: #231f20; stroke-width: 0px;"/>
</svg>