<?xml version="1.0" encoding="UTF-8"?>
<svg id="Layer_1" data-name="Layer 1" xmlns="http://www.w3.org/2000/svg" viewBox="0 0 60 67.39">
  <path d="M55.55,46.7c-.08-1.75-.15-3.49-.23-5.25-.45-10.38-.91-20.75-1.36-31.13-1.03,1.13-2.07,2.26-3.08,3.39L3.8,66.65c-2.03,2.28-5.17-1.26-3.15-3.54l.09-.11c2.08-2.53,4.35-4.89,6.52-7.33L50.81,6.74c-10.78-.58-21.57-1.15-32.35-1.73-2.86-.15-2.87-5.15,0-5,1.56.08,3.11.17,4.66.25,10.89.59,21.78,1.17,32.67,1.75.14,0,.28.01.41.04.95.19,1.76,1.12,1.94,2.18.02.15.03.3.03.46.08,1.68.14,3.39.22,5.08.54,12.32,1.08,24.63,1.62,36.95.14,3.22-4.31,3.2-4.45,0Z" style="fill: #231f20; stroke-width: 0px;"/>
</svg>