<svg xmlns="http://www.w3.org/2000/svg" width="244" height="80" viewBox="0 0 244 80">
    <g fill="none" fill-rule="evenodd">
        <g fill="#000" fill-rule="nonzero">
            <g>
                <path d="M66 52.798C134.253 35.028 167 0 167 0s-27.232 37.762-72.217 61L66 52.798z" transform="translate(-16 -68) translate(16 68)"/>
                <path d="M116.74 80C139.972 59.676 162 11 162 11s-29.084 37.745-74 60.973L116.74 80zM8.979 9.474C8.627 16.316 8.275 23.158 8.275 30H0c.88-8.04 1.232-15.566 1.232-26h14.085C17.254 4 25 4.171 25 10.842c0 4.105-2.465 6.33-6.338 7.526 1.584 3.935 3.521 7.698 5.282 11.46h-8.98c-1.408-4.96-3.344-9.75-5.105-14.539.704.172 1.409.172 1.937.172 2.289 0 5.105-.856 5.105-3.593 0-2.565-2.64-2.565-4.577-2.565H8.979v.17zM58.923 8.675c4.235 0 6.946 3.096 6.946 7.395 0 4.471-2.88 8.255-7.454 8.255-4.235 0-7.284-3.096-7.284-7.395 0-4.643 3.05-8.255 7.792-8.255M59.093 3C51.639 3 43 6.44 43 17.274 43 26.217 50.284 30 58.246 30 67.055 30 74 25.357 74 15.898 74 7.128 67.055 3 59.093 3M114.26 29.487c-2.434.342-4.869.513-7.303.513C100.696 30 92 27.437 92 17.184 92 7.784 99.478 3 108.522 3c2.435 0 4.695.342 7.13.684l.348 5.98c-2.087-.512-4-.854-6.26-.854-6.783 0-9.392 4.443-9.392 8.374 0 4.784 3.478 7.177 8 7.177 2.435 0 4.695-.513 7.13-1.026l-1.217 6.152zM155.534 59l3.59-7.526L161.518 59h-5.984zm7.352 5.474c.855 2.565 1.71 4.96 2.394 7.526H174c-3.249-8.553-6.497-17.276-9.575-26h-9.746c-2.223 4.618-10.943 21.382-13.679 26h8.891l3.42-7.526h9.575zM195 55.75l.342-6.842c1.54-.855 3.08-1.71 4.447-2.908H208c-.513 4.276-1.368 20.184-1.368 26h-8.382c.513-6.329.855-12.658 1.026-18.987L195 55.75zM222 71l.344-5.2c4.469-3.523 12.203-10.735 12.203-12.748 0-2.181-2.578-2.517-4.125-2.517-2.234 0-4.64.504-6.875 1.007l1.031-5.703c3.094-.504 6.188-.839 9.453-.839 6.36 0 9.969 2.18 9.969 6.542 0 4.697-7.734 10.735-11.172 14.09 6.36 0 7.563 0 10.313-.335l-.344 5.535L222 71z" transform="translate(-16 -68) translate(16 68)"/>
            </g>
        </g>
    </g>
</svg>
